<?xml version="1.0" encoding="UTF-8" standalone="no"?>
<!DOCTYPE svg PUBLIC "-//W3C//DTD SVG 20010904//EN"
              "http://www.w3.org/TR/2001/REC-SVG-20010904/DTD/svg10.dtd">

<svg xmlns="http://www.w3.org/2000/svg"
     width="3.2in" height="0.853333in"
     viewBox="0 0 960 256">
  <path id="Sélection"
        fill="currentColor" stroke="currentColor" stroke-width="1"
        d="M 109.00,5.21
           C 109.00,5.21 132.00,5.21 132.00,5.21
             143.55,5.02 155.10,8.00 166.00,11.67
             176.98,15.36 188.60,21.67 198.00,28.43
             253.31,68.22 262.63,148.09 222.84,202.00
             213.94,214.07 201.02,225.64 188.00,233.13
             171.96,242.35 150.67,249.97 132.00,250.00
             132.00,250.00 115.00,250.00 115.00,250.00
             105.94,249.89 92.66,246.56 84.00,243.67
             16.99,221.33 -14.69,146.73 10.06,82.00
             26.86,38.08 63.76,12.83 109.00,5.21 Z
           M 708.00,26.32
           C 709.32,26.22 708.86,25.70 711.00,26.32
             713.53,27.32 721.71,33.15 721.66,36.00
             721.64,37.37 720.65,38.43 719.76,39.33
             716.61,42.50 708.15,47.02 704.00,49.30
             697.79,52.72 685.60,59.60 679.02,61.20
             671.32,63.07 670.80,52.40 671.64,50.21
             672.68,47.48 676.58,46.01 679.00,44.69
             679.00,44.69 691.00,37.56 691.00,37.56
             696.38,34.14 702.49,28.69 708.00,26.32 Z
           M 777.00,142.00
           C 777.00,142.00 777.00,163.00 777.00,163.00
             776.84,171.15 774.86,170.09 761.00,170.00
             759.18,169.99 756.08,170.15 754.60,168.98
             752.62,167.41 753.00,163.30 753.00,161.00
             753.00,161.00 753.00,83.00 753.00,83.00
             753.00,83.00 752.04,73.00 752.04,73.00
             752.04,73.00 752.04,57.00 752.04,57.00
             752.04,57.00 751.00,35.00 751.00,35.00
             751.01,33.18 750.85,30.08 752.02,28.60
             753.39,26.86 756.03,27.09 758.00,27.13
             761.84,26.73 774.41,23.26 776.07,27.13
             776.94,28.90 776.01,36.46 776.07,39.00
             776.07,39.00 776.07,89.00 776.07,89.00
             786.41,80.55 796.39,72.91 810.00,70.46
             829.38,66.97 850.74,77.34 851.00,99.00
             851.12,109.19 849.69,117.95 842.53,125.83
             839.92,128.71 836.40,131.16 833.00,133.02
             830.79,134.24 827.83,135.04 827.95,138.11
             828.04,140.49 831.37,145.94 832.75,148.00
             832.75,148.00 847.00,167.79 847.00,167.79
             840.97,169.99 823.24,171.99 818.38,167.79
             814.83,164.35 806.07,146.99 801.68,143.85
             797.63,140.96 782.51,142.00 777.00,142.00 Z
           M 258.00,28.00
           C 262.50,27.41 277.41,25.03 280.79,27.02
             283.71,28.74 285.69,33.95 287.00,37.00
             287.00,37.00 296.00,57.00 296.00,57.00
             296.00,57.00 330.00,136.00 330.00,136.00
             330.00,136.00 332.00,136.00 332.00,136.00
             332.00,136.00 350.80,89.00 350.80,89.00
             350.80,89.00 363.20,57.00 363.20,57.00
             363.20,57.00 370.42,38.00 370.42,38.00
             371.47,35.25 373.13,30.44 375.39,28.60
             379.08,25.59 388.48,27.52 393.00,27.92
             394.96,28.09 397.62,27.88 398.98,29.60
             400.23,31.19 400.00,35.01 400.00,37.00
             400.00,37.00 400.00,55.00 400.00,55.00
             400.00,55.00 399.00,71.00 399.00,71.00
             399.00,71.00 399.00,99.00 399.00,99.00
             399.00,99.00 399.00,125.00 399.00,125.00
             399.00,125.00 400.00,140.00 400.00,140.00
             400.00,140.00 400.00,161.00 400.00,161.00
             400.00,162.71 400.13,166.21 399.40,167.69
             397.45,171.66 389.56,169.22 385.00,169.51
             382.31,169.68 376.84,170.75 374.60,168.98
             372.74,167.51 373.02,164.13 373.00,162.00
             373.00,162.00 373.00,147.00 373.00,147.00
             373.00,147.00 374.00,133.00 374.00,133.00
             374.00,133.00 374.00,110.00 374.00,110.00
             374.04,102.02 376.89,94.39 373.00,87.00
             373.00,87.00 350.40,142.00 350.40,142.00
             350.40,142.00 340.29,167.94 340.29,167.94
             339.59,169.21 339.00,170.19 337.73,170.98
             334.78,172.81 325.04,172.38 322.27,170.26
             319.19,167.90 314.12,154.27 312.28,150.00
             312.28,150.00 293.85,107.00 293.85,107.00
             291.28,101.01 287.51,90.24 283.00,86.00
             283.00,86.00 284.00,150.00 284.00,150.00
             284.00,150.00 283.01,168.25 283.01,168.25
             283.01,168.25 278.00,169.16 278.00,169.16
             278.00,169.16 266.00,169.16 266.00,169.16
             266.00,169.16 259.60,169.16 259.60,169.16
             259.60,169.16 258.00,161.00 258.00,161.00
             258.00,161.00 258.00,145.00 258.00,145.00
             258.00,145.00 259.00,128.00 259.00,128.00
             259.00,128.00 260.00,95.00 260.00,95.00
             260.00,95.00 258.96,80.00 258.96,80.00
             258.96,80.00 258.96,66.00 258.96,66.00
             258.96,66.00 258.00,54.00 258.00,54.00
             258.00,54.00 258.00,28.00 258.00,28.00 Z
           M 114.00,36.29
           C 81.50,41.66 57.45,58.10 42.76,88.00
             37.48,98.74 34.02,111.00 34.00,123.00
             33.97,139.68 33.96,147.97 40.45,164.00
             50.86,189.71 70.79,207.94 97.00,216.67
             103.69,218.90 111.94,220.91 119.00,221.00
             141.40,221.26 151.57,220.31 172.00,209.74
             223.98,182.85 234.24,110.16 196.71,67.00
             175.52,42.63 145.49,33.30 114.00,36.29 Z
           M 115.00,55.00
           C 115.00,55.00 117.00,55.00 117.00,55.00
             116.37,59.08 116.16,63.32 112.00,65.00
             112.00,65.00 115.00,55.00 115.00,55.00 Z
           M 122.70,55.99
           C 128.43,53.55 140.19,56.49 146.00,58.50
             172.25,67.57 188.62,91.24 187.99,119.00
             187.80,126.99 186.42,132.55 183.83,140.00
             183.01,142.35 181.64,146.62 179.45,147.85
             177.46,149.19 173.24,148.16 171.00,147.85
             163.20,146.28 155.84,143.09 149.00,139.13
             127.48,126.67 116.72,103.21 117.00,79.00
             117.08,72.54 118.55,60.97 122.70,55.99 Z
           M 156.00,178.00
           C 152.38,184.73 140.22,194.92 134.00,200.08
             131.49,202.16 127.54,206.04 124.00,205.26
             121.64,204.74 116.96,200.44 115.00,198.72
             107.41,192.04 100.58,184.50 93.83,177.00
             81.29,163.06 69.18,150.79 64.60,132.00
             56.54,98.96 77.25,63.81 111.00,57.00
             103.64,75.40 100.77,81.59 101.00,102.00
             101.42,137.22 124.61,164.69 156.00,178.00 Z
           M 729.00,140.00
           C 730.41,142.44 734.81,149.73 735.30,152.00
             736.27,156.53 732.14,160.07 729.00,162.67
             720.86,169.43 708.47,172.87 698.00,173.00
             679.27,173.21 663.11,167.39 652.55,151.00
             648.89,145.32 647.03,138.60 645.92,132.00
             641.49,105.70 654.13,75.79 682.00,69.24
             710.14,62.61 736.67,83.09 737.00,112.00
             737.05,116.37 737.56,121.24 733.77,124.30
             729.86,127.47 719.15,127.65 714.00,128.17
             714.00,128.17 679.00,131.09 679.00,131.09
             679.00,131.09 668.00,132.00 668.00,132.00
             669.66,136.74 670.52,139.18 674.10,142.96
             685.44,154.93 699.74,155.17 714.00,148.69
             714.00,148.69 729.00,140.00 729.00,140.00 Z
           M 495.00,158.00
           C 484.70,163.92 478.01,171.43 465.00,172.83
             437.76,175.75 418.86,153.17 415.85,128.00
             415.48,124.95 414.96,123.17 415.18,120.00
             417.15,92.30 431.92,69.70 462.00,69.01
             478.94,68.63 485.59,74.59 497.00,86.00
             497.86,83.02 499.00,75.62 501.43,74.04
             504.62,71.96 518.75,75.12 519.62,79.22
             519.98,80.94 518.59,87.81 518.27,90.00
             518.27,90.00 516.04,114.00 516.04,114.00
             516.04,114.00 516.04,129.00 516.04,129.00
             516.04,129.00 517.00,142.00 517.00,142.00
             517.00,142.00 518.00,156.00 518.00,156.00
             518.03,158.62 518.45,166.54 516.98,168.40
             515.41,170.38 511.34,169.94 509.00,170.17
             506.63,170.40 503.35,171.16 501.05,170.84
             495.52,170.06 495.36,162.41 495.00,158.00 Z
           M 610.00,158.00
           C 599.70,163.92 593.01,171.43 580.00,172.83
             552.76,175.75 533.86,153.17 530.85,128.00
             530.48,124.95 529.96,123.17 530.18,120.00
             532.15,92.30 546.92,69.70 577.00,69.01
             593.94,68.63 600.59,74.59 612.00,86.00
             612.86,83.02 614.00,75.62 616.43,74.04
             619.62,71.96 633.75,75.12 634.62,79.22
             634.98,80.94 633.59,87.81 633.27,90.00
             633.27,90.00 631.04,114.00 631.04,114.00
             631.04,114.00 631.04,129.00 631.04,129.00
             631.04,129.00 632.00,142.00 632.00,142.00
             632.00,142.00 633.00,156.00 633.00,156.00
             633.03,158.62 633.45,166.54 631.98,168.40
             630.41,170.38 626.34,169.94 624.00,170.17
             621.63,170.40 618.35,171.16 616.05,170.84
             610.52,170.06 610.36,162.41 610.00,158.00 Z
           M 901.00,69.44
           C 908.66,68.46 914.54,69.00 922.00,70.90
             951.43,78.39 964.32,114.33 953.55,141.00
             946.74,157.86 932.79,168.78 915.00,171.56
             909.45,172.43 903.48,172.11 898.00,171.00
             856.29,162.49 844.81,105.39 879.00,78.52
             886.26,72.81 892.14,71.07 901.00,69.44 Z
           M 110.00,72.00
           C 110.00,72.00 113.04,72.00 113.04,72.00
             113.04,72.00 113.04,87.00 113.04,87.00
             113.04,87.00 114.00,97.00 114.00,97.00
             114.00,97.00 109.00,97.00 109.00,97.00
             109.00,97.00 110.00,72.00 110.00,72.00 Z
           M 713.00,111.00
           C 712.51,89.53 688.77,80.00 674.33,96.09
             671.53,99.21 665.07,110.38 669.60,113.98
             670.93,115.03 673.38,114.97 675.00,115.00
             675.00,115.00 694.00,113.72 694.00,113.72
             694.00,113.72 713.00,111.00 713.00,111.00 Z
           M 463.00,89.30
           C 446.09,92.51 438.93,105.90 439.00,122.00
             439.08,139.36 452.81,154.71 471.00,151.68
             499.24,146.97 501.95,101.54 477.00,90.95
             472.28,88.95 468.01,88.80 463.00,89.30 Z
           M 578.00,89.30
           C 561.09,92.51 553.93,105.90 554.00,122.00
             554.08,139.36 567.81,154.71 586.00,151.68
             614.24,146.97 616.95,101.54 592.00,90.95
             587.28,88.95 583.01,88.80 578.00,89.30 Z
           M 904.00,90.30
           C 867.19,97.50 876.32,155.84 912.00,150.70
             938.86,146.83 944.38,106.99 922.00,93.61
             916.57,90.37 910.16,89.69 904.00,90.30 Z
           M 804.00,91.32
           C 795.08,93.32 781.11,101.83 777.02,110.00
             775.71,112.62 775.13,121.99 777.60,123.98
             779.76,125.73 789.03,126.00 792.00,126.00
             802.17,126.02 815.40,125.32 822.61,116.90
             828.07,110.51 828.60,98.95 820.96,94.00
             816.14,90.89 809.51,90.72 804.00,91.32 Z
           M 111.00,105.00
           C 111.00,105.00 117.00,105.00 117.00,105.00
             119.79,117.21 124.66,122.87 131.00,133.00
             128.40,133.00 123.54,133.35 121.39,131.98
             119.36,130.69 117.80,127.15 116.78,125.00
             113.99,119.08 111.32,111.54 111.00,105.00 Z
           M 126.00,140.00
           C 128.74,140.00 134.66,139.75 137.00,140.60
             139.59,141.54 146.00,147.18 149.00,149.28
             155.99,154.17 163.65,158.09 172.00,160.00
             170.56,162.63 166.95,167.49 163.91,168.19
             161.15,168.83 155.52,165.56 153.00,164.22
             143.08,158.95 131.68,149.73 126.00,140.00 Z
           M 287.00,227.00
           C 287.59,228.50 288.49,230.13 288.13,231.82
             287.23,236.11 276.92,240.41 268.01,236.08
             253.61,229.09 255.34,197.44 278.00,199.10
             284.49,199.57 292.01,203.52 285.00,210.00
             283.08,208.35 281.47,206.77 279.00,205.91
             263.88,200.59 260.04,231.29 276.00,231.60
             279.63,231.67 283.56,228.52 287.00,227.00 Z
           M 390.00,208.00
           C 395.10,200.30 397.45,195.83 402.91,204.02
             403.86,205.43 404.32,206.48 405.00,208.00
             405.00,208.00 404.00,209.00 404.00,209.00
             404.00,209.00 397.00,204.00 397.00,204.00
             394.99,207.87 394.38,208.36 390.00,208.00 Z
           M 415.00,200.00
           C 415.00,200.00 421.00,200.00 421.00,200.00
             421.00,200.00 421.00,238.00 421.00,238.00
             421.00,238.00 415.00,238.00 415.00,238.00
             415.00,238.00 415.00,200.00 415.00,200.00 Z
           M 696.00,200.00
           C 696.00,200.00 711.00,200.99 711.00,200.99
             711.00,200.99 723.00,200.00 723.00,200.00
             723.00,200.00 723.00,205.00 723.00,205.00
             723.00,205.00 713.00,205.00 713.00,205.00
             713.00,205.00 713.00,238.00 713.00,238.00
             713.00,238.00 706.00,238.00 706.00,238.00
             706.00,238.00 706.00,205.00 706.00,205.00
             706.00,205.00 695.00,205.00 695.00,205.00
             695.00,205.00 696.00,200.00 696.00,200.00 Z
           M 876.00,200.00
           C 876.00,200.00 882.00,200.00 882.00,200.00
             882.00,200.00 882.00,238.00 882.00,238.00
             882.00,238.00 876.00,238.00 876.00,238.00
             876.00,238.00 876.00,200.00 876.00,200.00 Z
           M 888.00,200.00
           C 888.00,200.00 894.00,200.00 894.00,200.00
             894.00,200.00 894.00,238.00 894.00,238.00
             894.00,238.00 888.00,238.00 888.00,238.00
             888.00,238.00 888.00,200.00 888.00,200.00 Z
           M 936.00,206.00
           C 942.06,203.03 943.43,199.74 950.00,202.00
             946.38,206.14 942.25,208.47 937.00,210.00
             937.00,210.00 936.00,206.00 936.00,206.00 Z
           M 865.33,203.08
           C 867.81,202.52 871.51,203.33 869.83,206.70
             868.19,209.99 861.05,208.04 865.33,203.08 Z
           M 901.33,203.08
           C 903.81,202.52 907.51,203.33 905.83,206.70
             904.19,209.99 897.05,208.04 901.33,203.08 Z
           M 351.00,203.00
           C 351.00,203.00 357.00,204.00 357.00,204.00
             357.00,204.00 357.00,212.00 357.00,212.00
             357.00,212.00 364.00,212.00 364.00,212.00
             364.00,212.00 364.00,218.00 364.00,218.00
             364.00,218.00 357.00,217.00 357.00,217.00
             356.35,225.01 353.42,233.13 365.00,232.00
             363.45,241.23 353.65,237.94 352.02,235.57
             350.36,233.16 351.00,220.57 351.00,217.00
             346.70,215.49 346.70,213.51 351.00,212.00
             351.00,212.00 351.00,203.00 351.00,203.00 Z
           M 562.00,203.00
           C 562.00,203.00 568.00,204.00 568.00,204.00
             568.00,204.00 568.00,212.00 568.00,212.00
             568.00,212.00 575.00,212.00 575.00,212.00
             575.00,212.00 575.00,218.00 575.00,218.00
             575.00,218.00 568.00,217.00 568.00,217.00
             567.35,225.01 564.42,233.13 576.00,232.00
             574.45,241.23 564.65,237.94 563.02,235.57
             561.36,233.16 562.00,220.57 562.00,217.00
             557.70,215.49 557.70,213.51 562.00,212.00
             562.00,212.00 562.00,203.00 562.00,203.00 Z
           M 639.00,203.00
           C 639.00,203.00 645.00,204.00 645.00,204.00
             645.00,204.00 645.00,212.00 645.00,212.00
             645.00,212.00 652.00,212.00 652.00,212.00
             652.00,212.00 652.00,218.00 652.00,218.00
             652.00,218.00 645.00,217.00 645.00,217.00
             644.35,225.01 641.42,233.13 653.00,232.00
             651.45,241.23 641.65,237.94 640.02,235.57
             638.36,233.16 639.00,220.57 639.00,217.00
             634.70,215.49 634.70,213.51 639.00,212.00
             639.00,212.00 639.00,203.00 639.00,203.00 Z
           M 913.00,203.00
           C 913.00,203.00 919.00,204.00 919.00,204.00
             919.00,204.00 919.00,212.00 919.00,212.00
             919.00,212.00 926.00,212.00 926.00,212.00
             926.00,212.00 926.00,218.00 926.00,218.00
             926.00,218.00 919.00,217.00 919.00,217.00
             918.35,225.01 915.42,233.13 927.00,232.00
             925.45,241.23 915.65,237.94 914.02,235.57
             912.36,233.16 913.00,220.57 913.00,217.00
             908.70,215.49 908.70,213.51 913.00,212.00
             913.00,212.00 913.00,203.00 913.00,203.00 Z
           M 301.00,211.53
           C 305.95,210.76 310.03,211.22 313.58,215.21
             319.45,221.80 317.60,235.30 307.00,237.60
             291.02,241.08 283.81,217.09 301.00,211.53 Z
           M 327.00,215.00
           C 328.70,213.80 330.03,212.77 332.00,212.00
             342.07,208.05 343.99,214.97 344.00,223.00
             344.00,223.00 344.00,238.00 344.00,238.00
             344.00,238.00 338.00,238.00 338.00,238.00
             338.00,233.54 339.22,220.32 335.69,217.64
             332.92,215.54 329.52,217.44 328.02,220.11
             326.42,222.95 327.00,234.19 327.00,238.00
             327.00,238.00 320.96,238.00 320.96,238.00
             320.96,238.00 320.96,222.00 320.96,222.00
             320.96,222.00 320.00,213.00 320.00,213.00
             323.66,212.46 324.76,211.76 327.00,215.00 Z
           M 368.00,212.00
           C 368.00,212.00 374.00,211.00 374.00,211.00
             374.00,211.00 374.00,215.00 374.00,215.00
             374.00,215.00 384.00,212.00 384.00,212.00
             384.00,212.00 384.00,217.00 384.00,217.00
             372.45,217.40 375.00,224.71 375.00,238.00
             375.00,238.00 368.96,238.00 368.96,238.00
             368.96,238.00 368.96,221.00 368.96,221.00
             368.96,221.00 368.00,212.00 368.00,212.00 Z
           M 395.00,211.53
           C 399.95,210.76 404.03,211.22 407.58,215.21
             413.45,221.80 411.60,235.30 401.00,237.60
             385.02,241.08 377.81,217.09 395.00,211.53 Z
           M 448.00,230.00
           C 448.63,237.58 440.97,238.91 435.00,237.47
             428.13,235.81 424.46,229.91 425.20,223.00
             426.35,212.28 439.15,206.62 446.57,215.21
             449.34,218.42 448.99,222.06 449.00,226.00
             449.00,226.00 431.00,228.00 431.00,228.00
             437.58,235.04 440.13,232.62 448.00,230.00 Z
           M 512.00,230.00
           C 512.63,237.58 504.97,238.91 499.00,237.47
             492.13,235.81 488.46,229.91 489.20,223.00
             490.35,212.28 503.15,206.62 510.57,215.21
             513.34,218.42 512.99,222.06 513.00,226.00
             513.00,226.00 495.00,228.00 495.00,228.00
             501.58,235.04 504.13,232.62 512.00,230.00 Z
           M 524.00,215.00
           C 525.70,213.80 527.03,212.77 529.00,212.00
             539.07,208.05 540.99,214.97 541.00,223.00
             541.00,223.00 541.00,238.00 541.00,238.00
             541.00,238.00 535.00,238.00 535.00,238.00
             535.00,233.54 536.22,220.32 532.69,217.64
             529.92,215.54 526.52,217.44 525.02,220.11
             523.42,222.95 524.00,234.19 524.00,238.00
             524.00,238.00 517.96,238.00 517.96,238.00
             517.96,238.00 517.96,222.00 517.96,222.00
             517.96,222.00 517.00,213.00 517.00,213.00
             520.66,212.46 521.76,211.76 524.00,215.00 Z
           M 588.00,211.53
           C 592.95,210.76 597.03,211.22 600.58,215.21
             606.45,221.80 604.60,235.30 594.00,237.60
             578.02,241.08 570.81,217.09 588.00,211.53 Z
           M 678.00,230.00
           C 678.63,237.58 670.97,238.91 665.00,237.47
             658.13,235.81 654.46,229.91 655.20,223.00
             656.35,212.28 669.15,206.62 676.57,215.21
             679.34,218.42 678.99,222.06 679.00,226.00
             679.00,226.00 661.00,228.00 661.00,228.00
             667.58,235.04 670.13,232.62 678.00,230.00 Z
           M 725.00,212.00
           C 725.00,212.00 731.00,211.00 731.00,211.00
             731.00,211.00 731.00,215.00 731.00,215.00
             731.00,215.00 741.00,212.00 741.00,212.00
             741.00,212.00 741.00,217.00 741.00,217.00
             729.45,217.40 732.00,224.71 732.00,238.00
             732.00,238.00 725.96,238.00 725.96,238.00
             725.96,238.00 725.96,221.00 725.96,221.00
             725.96,221.00 725.00,212.00 725.00,212.00 Z
           M 763.00,234.00
           C 760.44,235.81 758.25,237.43 755.00,237.75
             740.05,239.23 736.74,213.31 753.00,211.23
             757.56,210.64 760.46,212.50 764.00,215.00
             766.04,212.00 766.55,212.27 770.00,213.00
             770.00,213.00 769.00,238.00 769.00,238.00
             765.05,237.69 764.51,237.77 763.00,234.00 Z
           M 780.00,215.00
           C 781.70,213.80 783.03,212.77 785.00,212.00
             795.07,208.05 796.99,214.97 797.00,223.00
             797.00,223.00 797.00,238.00 797.00,238.00
             797.00,238.00 791.00,238.00 791.00,238.00
             791.00,233.54 792.22,220.32 788.69,217.64
             785.92,215.54 782.52,217.44 781.02,220.11
             779.42,222.95 780.00,234.19 780.00,238.00
             780.00,238.00 773.96,238.00 773.96,238.00
             773.96,238.00 773.96,222.00 773.96,222.00
             773.96,222.00 773.00,213.00 773.00,213.00
             776.66,212.46 777.76,211.76 780.00,215.00 Z
           M 822.00,234.00
           C 818.73,236.57 816.43,238.38 812.00,237.76
             796.04,235.54 799.80,207.25 816.00,211.43
             818.61,212.11 819.97,213.40 822.00,215.00
             822.00,215.00 822.00,211.00 822.00,211.00
             822.00,211.00 829.00,212.00 829.00,212.00
             829.00,212.00 828.00,246.00 828.00,246.00
             828.00,246.00 822.00,246.00 822.00,246.00
             822.00,246.00 822.00,234.00 822.00,234.00 Z
           M 952.00,230.00
           C 952.63,237.58 944.97,238.91 939.00,237.47
             932.13,235.81 928.46,229.91 929.20,223.00
             930.35,212.28 943.15,206.62 950.57,215.21
             953.34,218.42 952.99,222.06 953.00,226.00
             953.00,226.00 935.00,228.00 935.00,228.00
             941.58,235.04 944.13,232.62 952.00,230.00 Z
           M 454.00,212.00
           C 454.00,212.00 473.00,212.00 473.00,212.00
             472.02,220.66 464.79,226.10 460.00,233.00
             460.00,233.00 474.00,233.00 474.00,233.00
             474.00,233.00 473.00,238.00 473.00,238.00
             473.00,238.00 452.00,238.00 452.00,238.00
             452.51,229.38 460.09,223.68 465.00,217.00
             465.00,217.00 453.00,217.00 453.00,217.00
             453.00,217.00 454.00,212.00 454.00,212.00 Z
           M 626.00,234.00
           C 623.65,235.66 621.90,236.99 619.00,237.61
             606.70,240.23 607.95,227.84 608.00,220.00
             608.01,218.18 607.85,215.08 609.02,213.60
             610.40,211.86 613.02,212.07 615.00,212.00
             614.34,217.02 613.86,218.70 614.02,224.00
             614.34,235.10 622.18,233.37 624.83,228.81
             626.91,225.22 625.41,218.19 626.31,215.15
             626.91,213.14 628.57,211.80 630.70,212.66
             633.32,213.70 632.67,216.84 632.42,219.00
             631.66,225.69 631.82,230.39 633.00,237.00
             633.00,237.00 626.00,238.00 626.00,238.00
             626.00,238.00 626.00,234.00 626.00,234.00 Z
           M 852.00,234.00
           C 849.65,235.66 847.90,236.99 845.00,237.61
             832.70,240.23 833.95,227.84 834.00,220.00
             834.01,218.18 833.85,215.08 835.02,213.60
             836.40,211.86 839.02,212.07 841.00,212.00
             840.34,217.02 839.86,218.70 840.02,224.00
             840.34,235.10 848.18,233.37 850.83,228.81
             852.91,225.22 851.41,218.19 852.31,215.15
             852.91,213.14 854.57,211.80 856.70,212.66
             859.32,213.70 858.67,216.84 858.42,219.00
             857.66,225.69 857.82,230.39 859.00,237.00
             859.00,237.00 852.00,238.00 852.00,238.00
             852.00,238.00 852.00,234.00 852.00,234.00 Z
           M 863.00,213.00
           C 863.00,213.00 871.00,213.00 871.00,213.00
             871.00,213.00 870.00,238.00 870.00,238.00
             870.00,238.00 864.00,238.00 864.00,238.00
             864.00,238.00 863.00,213.00 863.00,213.00 Z
           M 899.00,213.00
           C 899.00,213.00 907.00,213.00 907.00,213.00
             907.00,213.00 906.00,238.00 906.00,238.00
             906.00,238.00 900.00,238.00 900.00,238.00
             900.00,238.00 899.00,213.00 899.00,213.00 Z
           M 303.02,216.49
           C 292.60,220.55 297.46,233.65 305.00,232.58
             312.68,231.49 314.07,216.43 303.02,216.49 Z
           M 397.02,216.49
           C 386.60,220.55 391.46,233.65 399.00,232.58
             406.68,231.49 408.07,216.43 397.02,216.49 Z
           M 443.00,223.00
           C 440.92,213.47 433.00,214.65 431.00,224.00
             431.00,224.00 443.00,223.00 443.00,223.00 Z
           M 507.00,223.00
           C 504.92,213.47 497.00,214.65 495.00,224.00
             495.00,224.00 507.00,223.00 507.00,223.00 Z
           M 590.02,216.49
           C 579.60,220.55 584.46,233.65 592.00,232.58
             599.68,231.49 601.07,216.43 590.02,216.49 Z
           M 673.00,223.00
           C 670.92,213.47 663.00,214.65 661.00,224.00
             661.00,224.00 673.00,223.00 673.00,223.00 Z
           M 754.02,216.64
           C 750.87,218.35 748.83,220.13 748.52,224.00
             748.12,229.14 752.61,234.21 757.96,232.24
             765.23,229.58 764.97,215.45 754.02,216.64 Z
           M 813.02,216.64
           C 803.21,222.01 809.32,235.03 816.96,232.38
             824.00,229.94 824.21,215.43 813.02,216.64 Z
           M 947.00,223.00
           C 944.92,213.47 937.00,214.65 935.00,224.00
             935.00,224.00 947.00,223.00 947.00,223.00 Z" />
</svg>
